<svg width="147" height="78" viewBox="0 0 147 78" fill="none" xmlns="http://www.w3.org/2000/svg">
<path d="M88.5572 45.7689C86.8643 45.7689 85.8611 47.1273 85.8611 48.8986C85.8611 50.6281 86.8643 51.8402 88.5572 51.8402C90.3284 51.8402 91.3316 50.5601 91.3316 48.7836C91.3316 47.0542 90.2866 45.7689 88.5572 45.7689ZM84.0533 62.9223C84.0533 64.2025 85.5163 65.1064 88.902 65.1064C91.9429 65.1064 93.6776 64.1293 93.6776 62.9223C93.6776 62.0498 92.9827 61.6736 90.9449 61.4541L88.1339 61.2295C86.7493 61.1093 86.0962 61.0048 85.1714 60.848C84.5287 61.3549 84.1317 62.1073 84.0533 62.9223ZM98.7614 42.5294L99.4929 46.7511C99.4929 46.7511 96.2221 46.8295 96.1855 46.8295C96.4102 47.4565 96.5304 48.1201 96.5304 48.7836C96.5304 52.7807 92.9879 55.1529 88.7139 55.1529C88.1235 55.1529 87.5278 55.1163 86.9427 55.0379C86.6866 55.2417 86.5194 55.5395 86.4829 55.8687C86.4829 56.3964 86.9427 56.5479 89.4872 56.8457L92.9513 57.0756C96.7237 57.4518 99.0018 58.6222 99.0018 61.4123C99.0018 65.446 94.4927 68.048 88.4474 68.048C83.1337 68.048 79.3561 66.4649 79.3561 63.6382C79.3561 62.0184 80.3593 60.8115 82.4388 59.6829C81.817 59.1865 81.4356 58.4393 81.3938 57.6452C81.3938 56.48 82.3604 55.3514 84.2048 54.3325C81.9999 53.4756 80.5578 51.3439 80.5839 48.977C80.5839 44.9433 83.9697 42.4144 88.5101 42.4144C90.5792 42.3517 92.6117 42.9787 94.2889 44.1909L98.7614 42.5294Z" fill="#10143B"/>
<path d="M101.379 61.2765V43.3184L107.231 42.3936V61.2765H101.379Z" fill="#10143B"/>
<path d="M55.7447 46.03C57.5159 46.03 58.5139 47.4616 58.7072 50.2517H52.7769C52.9702 47.425 54.125 46.03 55.7447 46.03ZM63.5612 55.5341C61.7168 56.6732 59.6059 57.3211 57.4376 57.4099C54.8982 57.4099 53.127 56.2813 52.8135 53.3762H64.1359C64.2195 52.8903 64.2613 52.3992 64.2508 51.908C64.2508 46.5525 61.675 42.3359 55.8962 42.3359C50.7758 42.3359 47.0034 45.9882 47.0034 52.023C47.0034 58.6169 51.0475 61.5533 56.7061 61.5533C59.3551 61.5951 61.9623 60.874 64.2195 59.4842L63.5612 55.5341Z" fill="#10143B"/>
<path d="M9.81763 50.9007L12.822 41.9869L15.8263 50.9007H9.81763ZM19.3165 61.1886H26.3179L16.7929 35.4453H9.5616L0 61.1886H6.43188L8.2815 55.8696H17.4042L19.3165 61.1886Z" fill="#10143B"/>
<path d="M39.0406 42.3418C36.6528 42.3418 34.845 43.6219 33.1469 45.2364L32.0967 42.4097L27.6033 43.1726V61.1829H33.4134V49.0506C34.4479 48.037 35.4929 47.3943 36.611 47.3943C37.9956 47.3943 38.5338 48.2982 38.5338 49.6201V61.1934H44.3909V48.0631C44.3962 44.484 42.5465 42.3418 39.0406 42.3418Z" fill="#10143B"/>
<path d="M78.0708 42.3418C75.2964 42.5299 73.7184 44.2646 72.5637 46.3755L71.1008 42.4149L66.8633 43.136V61.1882H72.6787V50.9316C74.3611 49.223 76.6392 48.2251 79.0322 48.1467L78.0708 42.3418Z" fill="#10143B"/>
<path d="M107.356 36.7296C107.356 34.9009 105.873 33.417 104.044 33.417C102.215 33.417 100.731 34.9009 100.731 36.7296C100.731 38.5583 102.215 40.0422 104.044 40.0422C105.873 40.0422 107.356 38.5583 107.356 36.7296Z" fill="#10143B"/>
<path fill-rule="evenodd" clip-rule="evenodd" d="M112.2 3.59272C113.271 4.66383 113.271 6.39851 112.205 7.46963C112.205 7.46963 112.205 7.46963 112.2 7.47485L94.4509 25.2606C93.3641 26.316 91.6294 26.2899 90.574 25.2031C89.5447 24.1372 89.5395 22.4495 90.574 21.3837L108.323 3.59794C109.389 2.52683 111.124 2.52161 112.195 3.59272C112.195 3.58749 112.195 3.58749 112.2 3.59272Z" fill="#23BEE6"/>
<path fill-rule="evenodd" clip-rule="evenodd" d="M131.083 16.0807C132.305 17.3086 132.305 19.2941 131.083 20.5219L113.971 37.6284C112.749 38.8563 110.758 38.8563 109.53 37.6336C108.302 36.411 108.302 34.4203 109.525 33.1924L126.642 16.0755C127.869 14.8529 129.86 14.8529 131.083 16.0807Z" fill="#1C75BC"/>
<path fill-rule="evenodd" clip-rule="evenodd" d="M137.839 19.7744C139.066 21.0022 139.066 22.993 137.839 24.2208L119.238 42.8216C118.01 44.0495 116.025 44.0495 114.797 42.8216C113.569 41.5938 113.569 39.6083 114.797 38.3804L133.397 19.7744C134.625 18.557 136.611 18.557 137.839 19.7744Z" fill="#23BEE6"/>
<path fill-rule="evenodd" clip-rule="evenodd" d="M137.985 50.9886C139.208 52.2165 139.208 54.2019 137.985 55.4298L124.107 69.302C122.874 70.5194 120.884 70.5038 119.666 69.2707C118.465 68.048 118.465 66.0835 119.666 64.866L133.544 50.9938C134.772 49.766 136.757 49.766 137.985 50.9886Z" fill="#7E53A2"/>
<path d="M90.6158 10.6943C89.5186 11.8281 89.5447 13.6412 90.6785 14.7384C91.7862 15.8148 93.5522 15.8148 94.6651 14.7384L99.681 9.72248L95.6369 5.68359L90.6158 10.6943Z" fill="#1C75BC"/>
<path d="M104.514 0.834685C103.396 -0.278228 101.588 -0.278228 100.47 0.834685L95.6317 5.67821L99.6758 9.71709L104.514 4.87879C105.632 3.76588 105.632 1.95805 104.514 0.834685C104.519 0.83991 104.519 0.834685 104.514 0.834685Z" fill="#564099"/>
<path d="M121.067 5.19229C119.87 4.00101 117.942 4.00101 116.746 5.19229L101.781 20.1565L106.103 24.4723L121.067 9.51332C122.258 8.31681 122.258 6.38358 121.067 5.19229Z" fill="#1C75BC"/>
<path d="M97.1574 24.7803C95.9662 25.9768 95.9766 27.9153 97.1731 29.1014C98.3644 30.2822 100.287 30.2822 101.478 29.1014L106.108 24.4721L101.787 20.1562L97.1574 24.7803Z" fill="#2B3990"/>
<path d="M105.82 26.4531C104.582 27.6653 104.561 29.656 105.778 30.889C106.991 32.1274 108.981 32.1483 110.214 30.9308C110.23 30.9152 110.246 30.8995 110.261 30.8838L119.348 21.7976L114.906 17.3564L105.82 26.4531Z" fill="#564099"/>
<path d="M128.345 8.36914C127.117 7.14128 125.126 7.14128 123.904 8.36914L114.906 17.3613L119.353 21.7972L128.345 12.8051C129.568 11.5825 129.568 9.597 128.345 8.36914Z" fill="#2B3990"/>
<path d="M112.639 50.994C111.411 52.2218 111.416 54.2073 112.639 55.4352C113.867 56.663 115.852 56.6578 117.08 55.4352L136.37 36.1342L131.929 31.6982L112.639 50.994Z" fill="#1C75BC"/>
<path d="M145.556 22.5182C144.333 21.2904 142.348 21.2904 141.12 22.513L141.115 22.5182L131.934 31.6985L136.376 36.1344L145.556 26.9594C146.778 25.7316 146.778 23.7461 145.556 22.5182Z" fill="#2B3990"/>
<path d="M116.155 57.932C114.948 59.1756 114.974 61.1663 116.218 62.3732C117.435 63.5593 119.374 63.5593 120.591 62.3732L131.872 51.0926L127.431 46.6514L116.155 57.932Z" fill="#2B3990"/>
<path d="M140.383 38.1403C139.161 36.9124 137.175 36.9124 135.952 38.1351L135.947 38.1403L127.436 46.6517L131.877 51.0929L140.388 42.5815C141.606 41.3536 141.606 39.3682 140.383 38.1403Z" fill="#564099"/>
<path d="M1.28013 73.8538V76.0378H0.00524902V69.8358H2.42439C2.84761 69.8253 3.27082 69.9142 3.65224 70.0918C3.99186 70.2486 4.27401 70.4993 4.46733 70.8181C4.66065 71.142 4.75993 71.513 4.7547 71.8892C4.78083 72.4378 4.55093 72.9708 4.12771 73.326C3.63134 73.7022 3.02003 73.8903 2.40349 73.8538H1.28013ZM1.28013 72.8192H2.41916C2.69608 72.8401 2.973 72.7513 3.19245 72.5789C3.37532 72.4012 3.4746 72.1504 3.45892 71.8996C3.46937 71.6279 3.37532 71.3615 3.19245 71.1629C2.9939 70.9696 2.72743 70.8651 2.45051 70.8755H1.28013V72.8192Z" fill="#10143B"/>
<path d="M5.37122 73.6912C5.36599 73.268 5.45481 72.85 5.63246 72.4686C5.79966 72.1237 6.0609 71.8311 6.39007 71.6378C6.74014 71.4393 7.13724 71.3348 7.53956 71.3452C8.10385 71.3243 8.65247 71.5281 9.06001 71.9147C9.46755 72.3275 9.70267 72.8813 9.71835 73.4665L9.7288 73.78C9.76015 74.4018 9.54593 75.0131 9.13838 75.4834C8.25015 76.335 6.84987 76.335 5.96163 75.4834C5.54364 75.0027 5.33464 74.3809 5.36599 73.7435L5.37122 73.6912ZM6.6043 73.7748C6.5834 74.1249 6.667 74.4749 6.84987 74.778C7.14769 75.1646 7.70675 75.243 8.0934 74.94C8.1561 74.8929 8.20835 74.8407 8.25537 74.778C8.44869 74.4436 8.53752 74.0622 8.50617 73.6808C8.52707 73.3307 8.43824 72.9806 8.25537 72.6828C8.09862 72.4529 7.82693 72.317 7.55001 72.3275C7.27309 72.317 7.01184 72.4477 6.85509 72.6776C6.66177 73.0172 6.57817 73.3986 6.6043 73.7748Z" fill="#10143B"/>
<path d="M14.5723 74.3593L15.1784 71.4229H16.3645L15.1888 76.0313H14.1595L13.287 73.1314L12.4144 76.0313H11.3903L10.2147 71.4229H11.4008L12.0016 74.354L12.8429 71.4229H13.7311L14.5723 74.3593Z" fill="#10143B"/>
<path d="M19.165 76.115C18.5537 76.1411 17.9581 75.9164 17.514 75.4932C17.0803 75.0543 16.8504 74.4535 16.8765 73.8369V73.7167C16.8713 73.2883 16.9601 72.8651 17.143 72.4732C17.3102 72.1231 17.5714 71.8305 17.9006 71.632C18.2402 71.4334 18.6269 71.3289 19.024 71.3342C19.583 71.308 20.1264 71.5223 20.5131 71.9298C20.8997 72.4053 21.093 73.0062 21.0565 73.6227V74.1243H18.1253C18.1514 74.4012 18.282 74.6572 18.4858 74.8506C18.6948 75.0334 18.9665 75.1327 19.2434 75.1223C19.6771 75.1432 20.0898 74.9498 20.3563 74.605L20.9624 75.2842C20.7691 75.5507 20.5131 75.7597 20.2152 75.8955C19.8808 76.0471 19.5256 76.1202 19.165 76.115ZM19.024 72.3321C18.7993 72.3217 18.5798 72.4157 18.4283 72.5829C18.2611 72.7867 18.1618 73.0323 18.1357 73.2935H19.8495V73.1995C19.8599 72.9696 19.7816 72.7397 19.6301 72.562C19.4681 72.4053 19.2486 72.3217 19.024 72.3321Z" fill="#10143B"/>
<path d="M24.4161 72.5834C24.2698 72.5625 24.1235 72.552 23.972 72.5468C23.5958 72.4998 23.2353 72.6879 23.0576 73.0223V76.0371H21.8245V71.4287H22.9897L23.021 71.9773C23.2144 71.5854 23.6114 71.3398 24.0451 71.3398C24.1757 71.3398 24.3064 71.3555 24.4265 71.3973L24.4161 72.5834Z" fill="#10143B"/>
<path d="M25.0692 70.2374C25.064 70.0649 25.1319 69.903 25.2521 69.7828C25.5447 69.5425 25.9679 69.5425 26.2605 69.7828C26.5113 70.0336 26.5113 70.4464 26.2605 70.6972C25.9679 70.9375 25.5499 70.9375 25.2573 70.6972C25.1319 70.577 25.064 70.4098 25.0692 70.2374ZM26.3754 76.0371H25.1423V71.4287H26.3754V76.0371Z" fill="#10143B"/>
<path d="M28.5908 71.4284L28.6274 71.9613C28.9461 71.5538 29.4372 71.3291 29.9493 71.3448C30.3621 71.3134 30.7644 71.4702 31.0413 71.7732C31.3078 72.1494 31.4384 72.5987 31.407 73.0585V76.0368H30.1792V73.0899C30.1949 72.8861 30.1374 72.6823 30.0068 72.5204C29.85 72.3898 29.6462 72.3218 29.4425 72.3427C29.1185 72.3271 28.8155 72.4995 28.664 72.7868V76.0368H27.4309V71.4284H28.5908Z" fill="#10143B"/>
<path d="M32.2326 73.6957C32.2012 73.0844 32.3789 72.4835 32.7394 71.9872C33.0581 71.5639 33.5702 71.3236 34.0979 71.3393C34.5524 71.3131 34.9913 71.5065 35.2787 71.8565L35.331 71.4229H36.4439V75.8797C36.4543 76.2507 36.3603 76.6112 36.1669 76.93C35.9841 77.2278 35.7124 77.4681 35.3936 77.6092C35.0279 77.7712 34.6256 77.8495 34.2285 77.8443C33.8889 77.8443 33.5545 77.7764 33.241 77.6405C32.9588 77.5308 32.708 77.3532 32.5147 77.1181L33.0581 76.3709C33.335 76.7001 33.7426 76.8882 34.171 76.8829C34.4532 76.8986 34.7249 76.8046 34.9339 76.6217C35.1272 76.4231 35.2212 76.1514 35.2056 75.8797V75.6342C34.9234 75.9529 34.5106 76.1305 34.0874 76.1149C33.5597 76.1305 33.0633 75.885 32.7446 75.467C32.3841 74.9706 32.2012 74.3593 32.2326 73.7427V73.6957ZM33.4657 73.7898C33.4448 74.1346 33.5336 74.4795 33.7164 74.7721C33.868 75.0019 34.1292 75.1378 34.4061 75.1273C34.7353 75.1535 35.0436 74.9863 35.2108 74.7041V72.7657C35.0488 72.4835 34.7405 72.3216 34.4166 72.3425C34.1397 72.332 33.8732 72.4731 33.7217 72.703C33.5284 73.0321 33.4395 73.4083 33.4657 73.7898Z" fill="#10143B"/>
<path d="M41.1776 70.2953V71.4291H41.9666V72.333H41.1776V74.632C41.1672 74.7626 41.1985 74.8932 41.2769 74.9977C41.3814 75.0865 41.5173 75.1231 41.6531 75.1074C41.7733 75.1074 41.8934 75.097 42.0136 75.0761V76.0061C41.7733 76.0793 41.5225 76.1158 41.2665 76.1158C40.6238 76.1994 40.0334 75.7501 39.9445 75.1074C39.9289 75.0082 39.9289 74.9089 39.9445 74.8096V72.3278H39.2705V71.4239H39.9445V70.29L41.1776 70.2953Z" fill="#10143B"/>
<path d="M43.9207 71.9302C44.2186 71.554 44.6731 71.3346 45.1538 71.345C46.1518 71.345 46.6586 71.925 46.6743 73.0849V76.037H45.4464V73.1215C45.4621 72.9125 45.4046 72.7035 45.274 72.5363C45.1225 72.3953 44.9135 72.3273 44.7097 72.3482C44.391 72.3273 44.0879 72.4893 43.926 72.7662V76.0423H42.6877V69.5059H43.9155V71.9302H43.9207Z" fill="#10143B"/>
<path d="M49.7883 76.115C49.177 76.1411 48.5813 75.9164 48.1372 75.4932C47.7035 75.0543 47.4737 74.4535 47.4998 73.8369V73.7167C47.4946 73.2883 47.5834 72.8651 47.7662 72.4732C47.9334 72.1231 48.1947 71.8305 48.5239 71.632C48.8635 71.4334 49.2501 71.3289 49.6472 71.3342C50.2063 71.308 50.7497 71.5223 51.1363 71.9298C51.523 72.4053 51.7215 73.0062 51.6797 73.6227V74.1243H48.7485C48.7747 74.4012 48.9053 74.6572 49.1091 74.8506C49.318 75.0334 49.5897 75.1327 49.8667 75.1223C50.3003 75.1432 50.7131 74.9498 50.9796 74.605L51.5857 75.2842C51.3923 75.5507 51.1363 75.7597 50.8385 75.8955C50.5093 76.0471 50.1488 76.1202 49.7883 76.115ZM49.6524 72.3321C49.4278 72.3217 49.2083 72.4157 49.0568 72.5829C48.8896 72.7867 48.7851 73.0323 48.7642 73.2935H50.478V73.1995C50.4884 72.9696 50.4101 72.7397 50.2585 72.562C50.0966 72.4053 49.8719 72.3217 49.6524 72.3321Z" fill="#10143B"/>
<path d="M58.5035 73.5029H56.053V76.037H54.7729V69.835H58.8065V70.8695H56.0477V72.4683H58.5035V73.5029Z" fill="#10143B"/>
<path d="M62.2079 75.5662C61.8997 75.9372 61.4294 76.1462 60.9487 76.1201C60.5307 76.1462 60.118 75.9947 59.8201 75.6969C59.538 75.3468 59.3969 74.9027 59.4231 74.4481V71.4281H60.6561V74.4063C60.6561 74.887 60.8756 75.1273 61.3145 75.1273C61.6593 75.1639 61.9989 74.9915 62.1766 74.6937V71.4229H63.4097V76.0313H62.2497L62.2079 75.5662Z" fill="#10143B"/>
<path d="M65.8706 70.2953V71.4291H66.6596V72.333H65.8706V74.632C65.8602 74.7626 65.8915 74.8932 65.9699 74.9977C66.0744 75.0865 66.2102 75.1231 66.3461 75.1074C66.4662 75.1074 66.5864 75.097 66.7066 75.0761V76.0061C66.4662 76.0793 66.2154 76.1158 65.9594 76.1158C65.3168 76.1994 64.7263 75.7501 64.6375 75.1074C64.6218 75.0082 64.6218 74.9089 64.6375 74.8096V72.3278H63.9635V71.4239H64.6375V70.29L65.8706 70.2953Z" fill="#10143B"/>
<path d="M70.176 75.5662C69.8677 75.9372 69.3974 76.1462 68.9168 76.1201C68.4988 76.1462 68.086 75.9947 67.7882 75.6969C67.506 75.3468 67.3649 74.9027 67.3911 74.4481V71.4281H68.6242V74.4063C68.6242 74.887 68.8436 75.1273 69.2825 75.1273C69.6273 75.1639 69.967 74.9915 70.1446 74.6937V71.4229H71.3777V76.0313H70.2178L70.176 75.5662Z" fill="#10143B"/>
<path d="M74.9515 72.5834C74.8052 72.5625 74.6589 72.552 74.5074 72.5468C74.1312 72.4998 73.7707 72.6879 73.593 73.0223V76.0371H72.3652V71.4287H73.5251L73.5617 71.9773C73.755 71.5854 74.1521 71.3398 74.5858 71.3398C74.7164 71.3398 74.847 71.3555 74.9672 71.3973L74.9515 72.5834Z" fill="#10143B"/>
<path d="M77.6528 76.115C77.0414 76.1411 76.4458 75.9164 76.0017 75.4932C75.568 75.0543 75.3381 74.4535 75.3642 73.8369V73.7167C75.359 73.2883 75.4478 72.8651 75.6307 72.4732C75.7979 72.1231 76.0592 71.8305 76.3883 71.632C76.7279 71.4334 77.1146 71.3289 77.5117 71.3342C78.0708 71.308 78.6141 71.5223 79.0008 71.9298C79.3874 72.4053 79.5808 73.0062 79.5442 73.6227V74.1243H76.613C76.6391 74.4012 76.7698 74.6572 76.9735 74.8506C77.1825 75.0334 77.4542 75.1327 77.7311 75.1223C78.1648 75.1432 78.5776 74.9498 78.844 74.605L79.4501 75.2842C79.2568 75.5507 79.0008 75.7597 78.703 75.8955C78.3738 76.0471 78.0185 76.1202 77.6528 76.115ZM77.5169 72.3321C77.2922 72.3217 77.0728 72.4157 76.9213 72.5829C76.7541 72.7867 76.6548 73.0323 76.6287 73.2935H78.3425V73.1995C78.3529 72.9696 78.2745 72.7397 78.123 72.562C77.961 72.4053 77.7364 72.3217 77.5169 72.3321Z" fill="#10143B"/>
</svg>
