<svg xmlns="http://www.w3.org/2000/svg" width="22" height="35" viewBox="0 0 22 35" fill="none">
  <path d="M5.78821 25.0994C5.86265 25.6949 5.93709 26.216 5.93709 26.8115H15.9122C15.9122 26.216 15.9866 25.6205 16.0611 25.0994H5.78821Z" fill="#00B050"/>
  <path d="M5.93713 28.3003V30.9057C5.93713 31.3524 6.2349 31.6501 6.68154 31.6501H6.90487C7.27707 33.5112 8.98922 35 10.9247 35C12.9346 35 14.5723 33.5856 14.9445 31.6501H15.1678C15.6145 31.6501 15.9122 31.3524 15.9122 30.9057V28.3003H5.93713Z" fill="#00B050"/>
  <path d="M10.3292 0.0126747C5.04383 0.310439 0.651804 4.47914 0.0562749 9.76447C-0.24149 12.7421 0.651804 15.6453 2.51283 17.8786C3.92721 19.5907 4.96939 21.5262 5.49048 23.5361H16.3589C16.88 21.5262 17.9221 19.5163 19.3365 17.8041C20.9742 15.8686 21.8675 13.4121 21.8675 10.8811C21.8675 4.70247 16.5822 -0.28509 10.3292 0.0126747Z" fill="#00B050"/>
</svg>