<svg xmlns="http://www.w3.org/2000/svg" width="25" height="27" viewBox="0 0 25 27" fill="none">
  <path d="M6.02653 3.76161V2.26492C5.98302 1.95997 6.01109 1.64908 6.10853 1.35685C6.20597 1.06463 6.37009 0.799095 6.58791 0.581277C6.80573 0.363459 7.07126 0.199336 7.36348 0.101899C7.65571 0.00446199 7.9666 -0.0236128 8.27155 0.0198972H15.755C16.0599 -0.0236128 16.3708 0.00446199 16.663 0.101899C16.9553 0.199336 17.2208 0.363459 17.4386 0.581277C17.6564 0.799095 17.8206 1.06463 17.918 1.35685C18.0154 1.64908 18.0435 1.95997 18 2.26492V3.76161C18.0435 4.06656 18.0154 4.37745 17.918 4.66968C17.8206 4.9619 17.6564 5.22743 17.4386 5.44525C17.2208 5.66307 16.9553 5.82719 16.663 5.92463C16.3708 6.02207 16.0599 6.05014 15.755 6.00663H8.27155C7.9666 6.05014 7.65571 6.02207 7.36348 5.92463C7.07126 5.82719 6.80573 5.66307 6.58791 5.44525C6.37009 5.22743 6.20597 4.9619 6.10853 4.66968C6.01109 4.37745 5.98302 4.06656 6.02653 3.76161ZM23.9867 7.50332V22.4702C24.0738 23.0801 24.0176 23.7018 23.8227 24.2863C23.6279 24.8707 23.2996 25.4018 22.864 25.8374C22.4283 26.2731 21.8973 26.6013 21.3128 26.7962C20.7284 26.9911 20.1066 27.0472 19.4967 26.9602H4.52985C3.91994 27.0472 3.29815 26.9911 2.7137 26.7962C2.12925 26.6013 1.59819 26.2731 1.16255 25.8374C0.726918 25.4018 0.398671 24.8707 0.203798 24.2863C0.00892399 23.7018 -0.0472255 23.0801 0.0397944 22.4702V7.50332C0.0397944 4.89609 1.1653 3.42785 3.42978 3.09858C3.47282 3.0936 3.51641 3.09754 3.55786 3.11013C3.59931 3.12273 3.63772 3.14372 3.67071 3.17179C3.7037 3.19987 3.73056 3.23443 3.74962 3.27333C3.76868 3.31223 3.77953 3.35464 3.7815 3.39791V3.76161C3.74032 4.36187 3.82823 4.96399 4.03932 5.52742C4.2504 6.09085 4.57975 6.60252 5.0052 7.02797C5.43064 7.45341 5.94231 7.78277 6.50574 7.99385C7.06917 8.20493 7.67129 8.29284 8.27155 8.25166H15.755C16.3552 8.29284 16.9574 8.20493 17.5208 7.99385C18.0842 7.78277 18.5959 7.45341 19.0213 7.02797C19.4468 6.60252 19.7761 6.09085 19.9872 5.52742C20.1983 4.96399 20.2862 4.36187 20.245 3.76161V3.4054C20.247 3.36212 20.2579 3.31972 20.2769 3.28082C20.296 3.24192 20.3228 3.20735 20.3558 3.17928C20.3888 3.1512 20.4272 3.13021 20.4687 3.11762C20.5101 3.10502 20.5537 3.10109 20.5967 3.10606C22.8612 3.42785 23.9867 4.89609 23.9867 7.50332ZM16.5482 12.1969C16.3376 11.9871 16.0523 11.8693 15.755 11.8693C15.4576 11.8693 15.1724 11.9871 14.9617 12.1969L10.771 16.3876L9.0648 14.6874C8.9612 14.5802 8.83729 14.4948 8.70032 14.436C8.56334 14.3773 8.41603 14.3464 8.26698 14.3451C8.11794 14.3439 7.97014 14.3724 7.83221 14.4289C7.69429 14.4854 7.569 14.5688 7.46365 14.6742C7.3583 14.7797 7.27501 14.9051 7.21864 15.043C7.16226 15.181 7.13393 15.3288 7.13529 15.4779C7.13666 15.6269 7.16769 15.7742 7.22659 15.9111C7.28548 16.0481 7.37105 16.1719 7.47831 16.2754L9.97328 18.7689C10.0773 18.8733 10.2009 18.9562 10.337 19.0127C10.4732 19.0693 10.6191 19.0984 10.7665 19.0984C10.9139 19.0984 11.0599 19.0693 11.196 19.0127C11.3321 18.9562 11.4558 18.8733 11.5598 18.7689L16.5482 13.7894C16.6532 13.6851 16.7365 13.561 16.7934 13.4244C16.8502 13.2877 16.8795 13.1412 16.8795 12.9932C16.8795 12.8451 16.8502 12.6986 16.7934 12.562C16.7365 12.4253 16.6532 12.3012 16.5482 12.1969Z" fill="#00B050"/>
</svg>