<svg xmlns="http://www.w3.org/2000/svg" width="24" height="27" viewBox="0 0 24 27" fill="none">
  <path d="M21.2503 7.67137L23.0937 5.85787C23.5406 5.41912 23.5406 4.707 23.0937 4.26713C22.6469 3.82725 21.9246 3.82725 21.4777 4.26713L19.6343 6.08063C17.8354 4.617 15.5943 3.66075 13.1429 3.43238V2.25H15.4286C16.0606 2.25 16.5714 1.746 16.5714 1.125C16.5714 0.504 16.0606 0 15.4286 0H8.57143C7.93943 0 7.42857 0.504 7.42857 1.125C7.42857 1.746 7.93943 2.25 8.57143 2.25H10.8571V3.43238C4.77486 4.0005 0 9.054 0 15.1875C0 21.7013 5.38286 27 12 27C18.6171 27 24 21.7013 24 15.1875C24 12.3345 22.9669 9.7155 21.2503 7.67137ZM16.1143 20.5875C15.9086 20.7394 15.6674 20.8125 15.4297 20.8125C15.0823 20.8125 14.7394 20.6573 14.5143 20.3625L11.0857 15.8625C10.9371 15.6679 10.8571 15.4316 10.8571 15.1875V9C10.8571 8.37788 11.3691 7.875 12 7.875C12.6309 7.875 13.1429 8.37788 13.1429 9V14.8129L16.3429 19.0125C16.7211 19.5098 16.6194 20.2151 16.1143 20.5875Z" fill="#00B050"/>
</svg>