<svg xmlns="http://www.w3.org/2000/svg" width="20" height="35" viewBox="0 0 20 35" fill="none">
  <path d="M14.3068 7.09459V4.86039H14.8163C16.149 4.86039 17.2465 3.76288 17.2465 2.43019C17.2465 1.09751 16.149 0 14.8163 0H4.78199C3.4493 0 2.3518 1.09751 2.3518 2.43019C2.3518 3.76288 3.4493 4.86039 4.78199 4.86039H5.29154V7.09459C2.3126 7.29058 0 9.75997 0 12.7389V18.8928H19.5983V12.7389C19.5983 9.75997 17.2857 7.29058 14.3068 7.09459ZM12.3469 7.0554H10.7791V6.19307H8.81924V7.0554H7.25138V4.82119H12.3469V7.0554Z" fill="#00B050"/>
  <path d="M0 21.2028V27.4742C0 29.63 1.2151 31.5899 3.13573 32.5698V35H16.4626V32.5698C18.3832 31.5899 19.5983 29.63 19.5983 27.4742V21.2028H0Z" fill="#00B050"/>
</svg>