<svg width="115" height="69" viewBox="0 0 115 69" fill="none" xmlns="http://www.w3.org/2000/svg">
<path d="M64.1605 15.5993C63.8333 16.5083 63.5788 17.4174 63.2515 18.2355C61.3425 23.108 57.7972 25.9988 52.7611 27.1624C51.5248 27.4169 50.3612 27.5805 49.1249 27.5805C46.725 27.5805 44.4161 27.326 42.1071 26.5806C41.9435 26.5806 41.8525 26.4897 41.6162 26.4169H42.4343C45.5796 26.326 48.5431 25.6715 51.4339 24.2716C54.4883 22.8716 57.0518 20.799 59.0335 18.1628C60.3607 16.5083 61.2698 14.6175 61.7607 12.5449C62.0879 11.054 62.0879 9.56318 61.5061 8.16325C61.3425 7.83599 61.1789 7.50874 60.9243 7.1633C61.5061 7.32693 61.997 7.49055 62.4879 7.74509C64.6332 8.56323 66.4513 9.89044 67.6149 12.0358C68.3603 13.2721 68.6876 14.672 68.8512 16.0901C69.1058 18.3264 68.8512 20.5445 68.1058 22.708V22.9626C71.0875 20.8172 73.0692 17.9264 73.651 14.2902C74.6509 7.9269 71.8329 3.21803 66.4695 0C66.8877 0 67.2149 -8.80482e-08 67.6331 0.0909047C69.1967 0.345438 70.6875 0.581791 72.1783 1.09086C75.9054 2.25444 78.8689 4.47252 81.1052 7.61782C82.0142 8.94503 82.8324 10.4359 83.5778 11.9085C84.8141 14.3811 86.3958 16.5447 88.4503 18.3628C89.9411 19.5991 91.5047 20.599 93.4137 20.999C95.6499 21.4899 97.7044 20.999 99.6134 19.9263C100.268 19.5082 100.85 19.0173 101.522 18.5991C101.104 20.6717 100.777 22.8171 99.377 24.5443C98.1407 26.0351 96.559 26.9442 94.6681 27.1078C94.0864 27.1078 93.4318 27.1987 92.7591 27.1987C90.8501 27.1987 89.123 26.5442 87.6321 25.3806C86.0686 24.217 84.7414 22.7444 83.7414 20.999C82.5051 19.0173 81.4324 16.9447 80.2688 14.8902C79.6871 13.8903 79.1053 12.9812 78.4508 12.0722C78.1962 11.7449 77.9599 11.4904 77.7053 11.254C77.7053 11.254 77.7053 11.4176 77.7962 11.5085C78.2871 12.3267 78.5417 13.3266 78.6144 14.2357C78.9416 18.7809 77.2872 22.5808 74.2328 25.7988C71.9238 28.2714 68.9421 29.6895 65.5605 30.2531C64.6514 30.4167 63.8333 30.5077 62.9242 30.5077H59.6153C60.0335 30.1804 60.4335 29.8531 60.8516 29.5077C62.3424 28.0169 63.4151 26.1988 64.1605 24.3079C64.6514 23.0716 64.906 21.8353 65.0696 20.5808C65.2332 19.09 65.0696 17.6901 64.5787 16.2901C64.5787 16.1265 64.4151 15.9629 64.3242 15.7993L64.1605 15.6356V15.5993ZM40.4526 21.399C42.1071 21.9808 43.7615 22.0535 45.4887 21.9808C46.725 21.9808 47.9613 21.6535 49.2158 21.3263C52.1975 20.4172 54.5792 18.69 56.07 15.9629C56.7245 14.7993 57.3972 12.9085 57.47 11.8358C56.3064 13.3994 54.9974 14.7266 53.4156 15.8902C50.943 17.7083 48.2159 18.8718 45.3251 19.6173C43.5979 20.0354 41.7798 20.3627 39.9617 20.4354H38.6345C39.1254 20.9263 39.7981 21.2535 40.4526 21.4354V21.399Z" fill="#079DD9"/>
<path d="M0.127266 31.5625H3.79981C3.9998 31.5625 4.09071 31.6534 4.09071 31.8534V41.3075C4.3816 41.1075 4.49069 40.9075 4.69068 40.7075C5.98153 39.3076 7.27237 37.9258 8.56322 36.5259C10.0541 34.926 11.454 33.4351 12.9448 31.8534C13.1448 31.6534 13.2357 31.6534 13.4357 31.6534H18.2173C18.2173 31.7443 18.2173 31.8534 18.1264 31.8534C15.6356 34.2351 13.2539 36.635 10.7631 39.0167C9.67225 40.0166 8.6723 41.1075 7.58145 42.1075C7.38146 42.3074 7.38146 42.3984 7.58145 42.5983C9.07228 44.0892 10.5631 45.6891 12.054 47.1799C13.6539 48.7799 15.1447 50.3616 16.7265 51.9615C17.3264 52.6524 18.0173 53.2524 18.6173 53.9433C18.6173 53.9433 18.8173 54.0342 18.7082 54.1432H13.7266C13.5266 54.1432 13.4357 54.1432 13.3266 53.9433C11.8358 52.3433 10.3449 50.6525 8.85411 49.0708C7.76326 47.9799 6.76331 46.78 5.67245 45.6891C5.18157 45.0891 4.58159 44.4892 4.07253 43.9074C4.07253 43.9074 4.07253 43.8165 3.98162 43.7074V53.8524C3.98162 54.119 3.8483 54.2523 3.58164 54.2523H0V31.5625H0.0909033H0.127266Z" fill="#035AA6"/>
<path d="M76.2327 67.979H76.0327C74.9418 67.779 74.2509 67.0882 73.9419 65.9973C73.7419 65.1973 73.7419 64.5065 73.9419 63.7065C74.2328 62.5066 74.8327 61.9248 76.0327 61.7248C76.7235 61.6339 77.4326 61.7248 78.1235 61.9248C78.8144 62.2157 79.3234 62.7247 79.4143 63.5247C79.4143 63.7186 79.3174 63.8519 79.1234 63.9247H78.8325C78.7416 63.9247 78.6325 63.9247 78.6325 63.7247C78.5416 62.8338 77.9417 62.5247 77.1417 62.4338H76.3417C75.4509 62.5247 74.9418 62.9247 74.8509 63.8338C74.6509 64.7246 74.6509 65.5246 75.0509 66.4155C75.3418 67.0154 75.8509 67.3063 76.4508 67.3063H77.5417C78.2326 67.1063 78.8325 66.3064 78.7416 65.5246C78.7416 65.3246 78.6507 65.3246 78.4507 65.3246H76.9599C76.5599 65.3246 76.469 65.1246 76.5599 64.7246C76.5599 64.6337 76.6508 64.6337 76.7599 64.6337H79.3416C79.4749 64.6337 79.5416 64.7307 79.5416 64.9246V67.8154C79.5416 68.0154 79.5416 68.1063 79.2507 68.1063C79.0507 68.1063 78.9598 68.1063 78.9598 67.8154C78.9598 67.5245 78.9598 67.3245 78.8689 67.0154C78.4689 67.7063 77.8689 68.0154 77.1781 68.1063H76.2872V68.0154L76.2327 67.979Z" fill="#035AA6"/>
<path d="M2.50895 67.9789H2.10897C1.10902 67.7789 0.509048 67.1789 0.327239 66.1971C0.127249 65.3063 0.127249 64.5063 0.327239 63.6154C0.618134 62.5246 1.41809 61.8337 2.50895 61.7246C3.10892 61.7246 3.70889 61.7246 4.29068 61.9246C5.18155 62.3246 5.69061 63.0155 5.78152 63.9063C5.78152 64.1063 5.78152 64.1972 5.58153 64.1972H5.38154C5.18761 64.1972 5.05428 64.1003 4.98156 63.9063C4.78157 63.0155 4.29068 62.5064 3.29073 62.4155H2.69076C1.79989 62.5064 1.29083 63.0155 1.09084 63.9063C0.890848 64.7063 0.890848 65.3972 1.09084 66.1971C1.29083 66.888 1.8908 67.288 2.58167 67.3971H3.47254C4.2725 67.3062 4.67248 66.7971 4.87247 65.9062C4.87247 65.8153 4.87247 65.7062 4.96337 65.6153H5.56334V65.9062C5.36335 67.1062 4.76338 67.7971 3.58162 67.997H2.29078H2.49077L2.50895 67.9789Z" fill="#035AA6"/>
<path d="M71.8511 38.3258C72.142 37.8349 72.451 37.4349 72.9419 37.1259C73.9419 36.435 75.0327 36.035 76.2327 35.9259C77.2326 35.835 78.3235 35.9259 79.3234 36.1259C80.6143 36.4168 81.6142 37.2168 82.3051 38.4167C82.3051 38.5076 82.396 38.7076 82.5051 38.4167C83.1051 37.4167 83.9959 36.7259 85.0868 36.3259C86.6867 35.7259 88.3775 35.635 90.0684 36.1259C91.9592 36.6168 93.05 37.9076 93.5591 39.7985C93.85 40.8893 93.9591 42.0893 93.9591 43.1801V53.9251C93.9591 54.1978 93.8318 54.325 93.5591 54.325H90.4683C90.2017 54.325 90.0684 54.1917 90.0684 53.9251V43.5801C90.0684 42.8892 90.0684 42.1802 89.9774 41.4893C89.6866 39.9984 88.7775 39.1985 87.2867 39.1076H85.7958C84.505 39.3076 83.8141 40.1075 83.6141 41.3984C83.5232 42.0893 83.4141 42.6892 83.4141 43.3801V53.8342C83.4141 54.1069 83.2869 54.2341 83.0141 54.2341H79.9234C79.6567 54.2341 79.5234 54.1008 79.5234 53.8342V43.1983C79.5234 42.5983 79.5234 41.9074 79.3234 41.3075C79.0325 39.9075 78.1235 39.1258 76.6326 39.0167H75.1418C73.9419 39.2167 73.251 40.0166 72.9601 41.1075C72.7601 41.7075 72.7601 42.3983 72.7601 42.9983V53.6342C72.7601 53.9614 72.5965 54.125 72.2692 54.125H69.1785C68.9845 54.125 68.8876 54.0281 68.8876 53.8342V36.3259C68.8876 36.1259 68.8876 35.9259 69.1785 35.9259H70.6693C70.8693 35.9259 70.9602 35.9259 71.0693 36.2168C71.2693 36.8168 71.4693 37.4167 71.6693 37.9076C71.6693 37.9076 71.6693 38.1076 71.7602 38.1076L71.8511 38.3076V38.3258Z" fill="#035AA6"/>
<path d="M62.8878 51.6713C61.4879 53.4531 59.5061 54.1621 57.4153 54.453C55.9245 54.653 54.5246 54.5439 53.1428 54.253C51.852 53.9621 50.652 53.3622 49.8521 52.2713C49.2521 51.4713 48.9612 50.4896 48.8521 49.4896C48.8521 48.6897 48.8521 47.9988 49.0521 47.3079C49.4521 46.217 50.252 45.4171 51.2338 44.9262C52.3247 44.3262 53.6155 44.0353 54.9064 43.8353C56.7972 43.5444 58.688 43.4354 60.6697 43.2354C61.0697 43.2354 61.4697 43.2354 61.7606 43.1445C61.8515 43.1445 62.0515 43.1445 62.0515 42.9445C62.0515 42.0536 61.8515 41.2536 61.3606 40.5628C60.9606 39.9628 60.3606 39.5628 59.6698 39.3628C58.2698 38.9628 56.8881 38.9628 55.4881 39.3628C53.9973 39.6537 53.1974 40.6537 53.1974 42.2536C53.1974 42.8536 53.1974 42.7445 52.7065 42.7445H49.8157C49.549 42.7445 49.4157 42.6112 49.4157 42.3445C49.4157 41.1446 49.6157 39.9628 50.3066 38.8538C51.1065 37.5629 52.2883 36.7629 53.7973 36.363C55.3972 35.963 56.979 35.8721 58.6698 35.963C59.7607 35.963 60.7606 36.163 61.7606 36.4539C63.8514 37.0538 65.1422 38.4356 65.6331 40.6355C65.8331 41.6354 65.924 42.7263 65.924 43.7263V53.8712C65.924 54.1439 65.7604 54.2712 65.4331 54.2712H64.1423C63.8514 54.2712 63.7423 54.2712 63.6514 53.8712C63.4514 53.1804 63.2514 52.5804 63.0514 51.8895C63.0514 51.8895 63.0514 51.6895 62.9605 51.5986L62.8696 51.6895L62.8878 51.6713ZM56.7244 51.4713C57.2153 51.4713 57.6153 51.4713 58.1244 51.3804C59.3243 51.1805 60.3061 50.5805 61.1061 49.5987C61.906 48.5078 62.106 47.3079 61.9969 46.108C61.9969 45.908 61.906 45.908 61.7969 46.0171C60.9061 46.108 60.0152 46.217 59.1062 46.308C57.9062 46.3989 56.8154 46.5079 55.6154 46.7079C55.0154 46.7988 54.4155 46.9988 53.8337 47.1988C53.3428 47.4897 52.9428 47.8897 52.8337 48.4897C52.6337 49.5805 53.1246 50.5805 54.2337 50.9805C55.0336 51.3804 55.9245 51.4713 56.8154 51.4713H56.7244Z" fill="#035AA6"/>
<path d="M96.6135 45.3068C96.6135 43.816 96.8135 42.3252 97.2134 40.9252C98.1043 38.4344 99.7951 36.9436 102.286 36.2527C104.468 35.6527 106.668 35.6527 108.758 36.2527C111.449 36.9436 113.231 38.6344 114.031 41.3252C114.831 44.1069 114.831 46.8886 113.831 49.6884C113.031 51.8702 111.449 53.361 109.249 54.0701C106.668 54.87 104.177 54.87 101.595 54.0701C99.1042 53.2701 97.6134 51.4884 97.0134 48.9976C96.7226 47.7976 96.6135 46.6159 96.6135 45.5068V45.3068ZM100.504 45.1977C100.504 46.1977 100.504 47.1795 100.795 48.0885C101.286 49.7793 102.286 50.8702 104.086 51.2702C104.977 51.4702 105.777 51.4702 106.668 51.2702C108.558 51.0702 109.849 49.9793 110.34 48.0885C110.831 45.9977 110.831 44.016 110.34 41.9252C109.94 40.3252 108.849 39.4344 107.249 39.0344C106.358 38.8344 105.468 38.8344 104.559 39.0344C102.777 39.2344 101.468 40.3252 100.886 42.1252C100.595 43.1251 100.486 44.1069 100.486 45.2159L100.504 45.1977Z" fill="#035AA6"/>
<path d="M35.3437 45.1971V53.8512C35.3437 54.1179 35.2104 54.2512 34.9437 54.2512H33.5438C33.2529 54.2512 33.1438 54.1603 33.0529 53.8512C32.8529 53.2512 32.653 52.5604 32.453 51.9604V51.8695H32.3621C31.6712 52.8694 30.7621 53.4694 29.6713 53.8512C28.1804 54.3421 26.5805 54.5421 24.9988 54.4512C24.3079 54.4512 23.7079 54.3603 23.0171 54.1603C21.0353 53.6694 19.7263 52.2695 19.2354 50.2877C18.9445 49.0878 18.8354 47.906 18.8354 46.7061V36.5611C18.8354 36.2945 18.9688 36.1611 19.2354 36.1611H22.2171C22.4838 36.1611 22.6171 36.2945 22.6171 36.5611V46.9061C22.6171 47.597 22.6171 48.306 22.8171 48.9969C23.108 50.0878 23.817 50.8877 24.9079 51.1786C26.1987 51.4695 27.5987 51.4695 28.9804 51.1786C30.2713 50.8877 31.0712 49.9787 31.3621 48.6878C31.5621 47.9969 31.5621 47.397 31.5621 46.7061V36.652C31.5621 36.3793 31.6894 36.252 31.9621 36.252H35.0528C35.3256 36.252 35.4528 36.3793 35.4528 36.652V45.3062L35.3619 45.2153L35.3437 45.1971Z" fill="#035AA6"/>
<path d="M41.798 38.526C42.9979 36.7443 44.6887 36.1443 46.6705 35.9443H48.0704C48.2704 35.9443 48.3613 35.9443 48.3613 36.2352V39.126C48.3613 39.3199 48.228 39.4169 47.9613 39.4169H45.8705C44.1797 39.7078 43.2888 40.8168 42.9797 42.5077C42.9797 42.9985 42.8888 43.5985 42.8888 44.1985V53.9435C42.8888 54.2162 42.7252 54.3435 42.398 54.3435H39.3072C39.1072 54.3435 39.0163 54.3435 39.0163 54.0526V36.5443C39.0163 36.3443 39.0163 36.2534 39.3072 36.2534H40.798C40.998 36.2534 41.0889 36.2534 41.198 36.5443C41.398 37.1443 41.598 37.7442 41.8889 38.4351C41.8889 38.4351 41.8889 38.6351 41.9798 38.726L41.7798 38.526H41.798Z" fill="#035AA6"/>
<path d="M47.3795 66.9789C47.6704 66.2881 47.9795 65.6881 48.2704 65.0881C48.7613 64.0882 49.1613 62.9973 49.6703 61.9973C49.6703 61.7974 49.8703 61.7065 50.0703 61.7065H50.6703C50.8703 61.7065 50.9612 61.7065 50.9612 61.9973V67.5607C50.9612 67.7547 50.8278 67.8516 50.5612 67.8516C50.2945 67.8516 50.1612 67.7183 50.1612 67.4516V62.7791C49.9612 63.27 49.6703 63.7791 49.4703 64.27C48.9794 65.3608 48.4704 66.4517 47.9795 67.5607C47.9795 67.7607 47.6886 67.7607 47.5795 67.7607C47.3795 67.7607 47.1795 67.7607 47.0886 67.5607C46.5977 66.3608 45.9978 65.179 45.4887 63.9791C45.2887 63.5791 45.1978 63.1791 44.9978 62.7791V67.3607C44.9978 67.4516 44.9978 67.6516 44.9069 67.6516H44.3069V61.7792C44.3069 61.5792 44.3069 61.4883 44.5978 61.4883C45.1918 61.4883 45.622 61.7549 45.8887 62.2882C46.4887 63.6882 47.1795 65.0699 47.7795 66.4699C47.7795 66.4699 47.7795 66.6699 47.9795 66.7608L47.3795 66.9607V66.9789Z" fill="#035AA6"/>
<path d="M91.0501 66.9787C91.341 66.2878 91.6501 65.6879 91.941 64.997C92.4319 63.997 92.8319 62.9062 93.3409 61.9062C93.3409 61.7062 93.5409 61.6153 93.7409 61.6153H94.4318C94.6318 61.6153 94.7227 61.6153 94.7227 61.9062V67.4696C94.7227 67.6635 94.5893 67.7605 94.3227 67.7605C94.056 67.7605 93.9227 67.6635 93.9227 67.4696V62.7971C93.7227 63.288 93.4318 63.797 93.2318 64.2879C92.741 65.3788 92.2319 66.4696 91.741 67.5787C91.741 67.7787 91.4501 67.7787 91.341 67.7787C91.141 67.7787 90.941 67.7787 90.741 67.4878C90.1411 66.0878 89.4502 64.597 88.7593 63.2152C88.7593 63.1243 88.6684 62.9243 88.5593 62.8153V67.3969C88.5593 67.4878 88.5593 67.6878 88.4684 67.6878H87.8685V61.8153C87.8685 61.6153 87.8685 61.5244 88.1594 61.5244C88.7593 61.5244 89.1593 61.6153 89.4502 62.3244C89.9411 63.7243 90.6501 65.0152 91.2319 66.3969C91.2319 66.4878 91.3228 66.6878 91.4319 66.8878L91.0319 66.9787H91.0501Z" fill="#035AA6"/>
<path d="M60.7061 62.8155V67.488C60.7061 67.5789 60.7061 67.7789 60.6152 67.888H60.0153V62.0155C60.0153 61.8155 60.0153 61.7246 60.3062 61.7246C60.797 61.7246 61.1061 61.7246 61.397 62.2155C62.397 63.6154 63.3787 64.9972 64.4878 66.488C64.4878 66.488 64.5787 66.688 64.6878 66.7789V62.1064C64.6878 62.0155 64.6878 61.8155 64.7787 61.8155H65.3786V67.688C65.3786 67.888 65.3786 67.9789 65.1786 67.888H64.7787C64.5787 67.888 64.3787 67.888 64.2878 67.5971C63.1969 65.9971 61.997 64.4154 60.9061 62.9246L60.8152 62.8336H60.7243L60.7061 62.8155Z" fill="#035AA6"/>
<path d="M107.558 66.7785V61.9969C107.558 61.906 107.558 61.7061 107.649 61.7061H108.249V67.5785C108.249 67.7785 108.249 67.8694 107.958 67.8694C107.467 67.8694 107.158 67.8694 106.868 67.3785C105.868 65.8877 104.777 64.3968 103.686 62.9969C103.686 62.9969 103.595 62.906 103.486 62.7969V67.5785C103.486 67.6694 103.486 67.8694 103.395 67.8694H102.795V61.9969C102.795 61.8636 102.892 61.7667 103.086 61.7061C103.577 61.7061 103.977 61.7061 104.286 62.1969C105.286 63.6878 106.377 65.0877 107.377 66.4695C107.377 66.4695 107.377 66.6695 107.577 66.6695V66.7604L107.558 66.7785Z" fill="#035AA6"/>
<path d="M31.2531 61.7061H31.544C31.744 61.7061 31.8349 61.7061 31.8349 61.906C32.6348 63.7969 33.3257 65.6877 34.1257 67.5785C34.1257 67.7785 34.1257 67.8694 33.9257 67.8694H33.7257C33.5257 67.8694 33.3257 67.8694 33.3257 67.5785C33.3257 67.2876 33.1257 67.0876 33.0348 66.7785C33.0348 66.5786 32.8348 66.5786 32.7439 66.5786H29.8532C29.6532 66.5786 29.5623 66.5786 29.5623 66.7785C29.5623 67.0694 29.3623 67.2694 29.2714 67.5785C29.2714 67.7785 29.0714 67.8694 28.8714 67.8694H28.6714C28.4775 67.8694 28.4108 67.7724 28.4714 67.5785C29.0714 66.1786 29.6714 64.6877 30.2531 63.306C30.4531 62.906 30.544 62.6151 30.744 62.2151C30.944 61.7242 30.8349 61.7242 31.4349 61.7242H31.2349L31.2531 61.7061ZM31.2531 62.506L31.1622 62.5969C30.7622 63.6878 30.3622 64.6877 29.8713 65.7786C29.8713 65.9119 29.938 65.9786 30.0713 65.9786H32.453C32.5864 65.9786 32.653 65.9119 32.653 65.7786C32.5621 65.4877 32.453 65.1786 32.253 64.8877C31.9621 64.0878 31.6531 63.2878 31.3622 62.506H31.2713H31.2531Z" fill="#035AA6"/>
<path d="M69.8511 61.7062H70.142C70.342 61.7062 70.4329 61.7062 70.4329 61.9062C71.2329 63.797 71.9238 65.6878 72.7237 67.5787C72.8146 67.8696 72.7237 67.8696 72.5237 67.8696C72.1965 67.8696 71.9601 67.7059 71.8328 67.3787C71.8328 67.1787 71.6329 66.9787 71.542 66.6878C71.542 66.5969 71.451 66.4878 71.2511 66.4878H68.3603C68.227 66.4878 68.13 66.5545 68.0694 66.6878C67.9785 66.9787 67.8694 67.1787 67.7785 67.4878C67.7785 67.6878 67.1785 67.8877 66.8876 67.6878C66.7967 67.6878 66.8876 67.4878 66.8876 67.3969C67.1785 66.5969 67.4876 65.7969 67.8876 65.1061C68.2876 64.1061 68.6875 63.0153 69.1784 62.0153C69.3784 61.5244 69.2693 61.6153 69.8693 61.5244V61.7244L69.8511 61.7062ZM69.8511 62.4153V62.5062C69.4511 63.597 69.0512 64.597 68.5603 65.6879C68.5603 65.8878 68.5603 65.9788 68.7603 65.8878H71.0511C71.245 65.8878 71.3117 65.7909 71.2511 65.5969C70.9602 64.797 70.6511 63.997 70.2511 63.2152C70.1602 62.9243 70.0511 62.7244 69.9602 62.3244L69.8693 62.4153H69.8511Z" fill="#035AA6"/>
<path d="M10.0722 61.7057H10.2722C10.5631 61.7057 10.6722 61.7057 10.7631 61.9966C11.454 63.8874 12.2539 65.6691 12.9448 67.469C13.0054 67.663 12.9387 67.7599 12.7448 67.7599C12.4176 67.7599 12.1812 67.5963 12.0539 67.2691C11.9267 66.9418 11.5267 66.6691 10.854 66.4691H8.7632C8.56321 66.4691 8.4723 66.4691 8.36322 66.76C8.36322 66.96 8.16323 67.16 8.07232 67.4509C8.07232 67.7418 7.78143 67.8508 7.47235 67.8508C7.2057 67.8508 7.10873 67.7175 7.18146 67.4509C7.87233 65.6691 8.67229 63.8692 9.36317 62.1784C9.56316 61.6875 9.45407 61.6875 10.054 61.6875L10.0722 61.7057ZM10.0722 62.4147C9.58134 63.6147 9.18136 64.7055 8.67229 65.7964C8.67229 65.9297 8.73895 65.9964 8.87228 65.9964H11.254C11.3873 65.9964 11.4176 65.9297 11.3449 65.7964C11.254 65.5055 11.054 65.1055 10.9449 64.7964C10.654 63.9965 10.3449 63.3056 10.054 62.4147H10.0722Z" fill="#035AA6"/>
<path d="M55.3428 61.707H55.5428C55.7428 61.707 55.9428 61.707 55.9428 61.9979C56.6337 63.6887 57.3427 65.3795 58.0336 67.1794C58.0336 67.3794 58.1245 67.5794 58.2336 67.6703C58.2336 67.8037 58.2033 67.8703 58.1427 67.8703H57.7427C57.5427 67.8703 57.4518 67.8703 57.4518 67.6703C57.3609 67.3794 57.2518 67.0704 57.1609 66.7795C57.1609 66.6886 57.07 66.5795 56.87 66.5795H53.9792C53.8459 66.5795 53.7489 66.6461 53.6883 66.7795C53.5974 67.0704 53.4884 67.3794 53.2884 67.6703C53.2884 67.8703 52.5975 67.9612 52.4884 67.8703V67.6703C52.7793 66.7795 53.1793 65.9795 53.4884 65.0886C53.8883 64.0887 54.2883 63.1978 54.6883 62.1979C54.8883 61.5979 54.7792 61.707 55.3792 61.707H55.3428ZM55.3428 62.5069C54.9428 63.5978 54.4519 64.5978 54.052 65.6886C54.052 65.8219 54.1186 65.8886 54.2519 65.8886H56.5427C56.7427 65.8886 56.8336 65.8886 56.7427 65.5977C56.4518 64.7977 56.0519 63.9069 55.7428 63.1069C55.7428 62.9069 55.5428 62.616 55.4519 62.416L55.361 62.5069H55.3428Z" fill="#035AA6"/>
<path d="M81.5051 64.7972V62.0155C81.5051 61.8216 81.6021 61.7246 81.796 61.7246H85.3777C85.5777 61.7246 85.6686 61.7246 85.6686 62.0155C85.6686 62.3064 85.6686 62.3064 85.3777 62.3064H82.596C82.396 62.3064 82.3051 62.3064 82.3051 62.5973V63.9972C82.3051 64.1972 82.3051 64.2881 82.596 64.2881H84.9777C85.3777 64.2881 85.4686 64.4881 85.3777 64.8881C85.3777 65.0881 85.1777 64.979 85.0868 64.979H82.7051C82.4324 64.979 82.3051 65.1063 82.3051 65.379V66.8698C82.3051 67.0698 82.3051 67.1607 82.596 67.1607H85.3777C85.6686 67.1607 85.8685 67.4516 85.6686 67.7607C85.6686 67.8516 85.4686 67.7607 85.3777 67.7607H81.796C81.596 67.7607 81.5051 67.7607 81.5051 67.4698V64.6881V64.779V64.7972Z" fill="#035AA6"/>
<path d="M14.5447 64.7968V62.106C14.5447 61.8151 14.5447 61.7061 14.8356 61.7061H17.5264C18.6173 61.906 19.2172 62.506 19.2172 63.5969V63.6878C19.2172 64.8877 18.7264 65.3786 17.6173 65.5786H15.6356C15.4417 65.5786 15.3447 65.6756 15.3447 65.8695V67.2694C15.3447 67.5361 15.2114 67.6694 14.9447 67.6694C14.6781 67.6694 14.5447 67.5361 14.5447 67.2694V64.5786V64.7786V64.7968ZM15.3447 63.7969V64.8877C15.3447 64.9786 15.3447 65.0877 15.5447 65.0877H17.5264C17.8173 65.0877 18.0173 64.8877 18.2173 64.6877C18.8173 63.8878 18.3082 62.706 17.4173 62.506C16.8174 62.4151 16.1265 62.506 15.5265 62.506C15.3265 62.506 15.3265 62.5969 15.3265 62.7969V63.8878V63.7969H15.3447Z" fill="#035AA6"/>
<path d="M96.7225 64.7972V62.0155C96.7225 61.8155 96.7225 61.7246 97.0134 61.7246H100.595C100.789 61.7246 100.886 61.8216 100.886 62.0155C100.886 62.2155 100.886 62.3064 100.595 62.3064H97.8134C97.6134 62.3064 97.5225 62.3064 97.5225 62.5973V63.9972C97.5225 64.1972 97.5225 64.2881 97.8134 64.2881H100.304C100.498 64.2881 100.631 64.4214 100.704 64.6881C100.704 64.979 100.613 64.979 100.304 64.979H97.8134C97.5225 64.979 97.4134 64.979 97.5225 65.2699V66.7607C97.5225 67.0274 97.6558 67.1607 97.9225 67.1607H100.704C100.898 67.1607 101.031 67.2577 101.104 67.4516C101.104 67.7425 101.013 67.7425 100.704 67.7425H97.1225C96.8316 67.7425 96.7225 67.7425 96.8316 67.4516V64.6699L96.7407 64.7608L96.7225 64.7972Z" fill="#035AA6"/>
<path d="M26.1806 65.1971V67.5788C26.1806 67.8697 26.0897 67.8697 25.7806 67.8697C25.5139 67.8697 25.3806 67.7727 25.3806 67.5788V62.7972C25.3806 62.5245 25.2534 62.3972 24.9806 62.3972H23.7807C23.4898 62.3972 23.4898 62.3063 23.4898 62.1063C23.4898 61.9063 23.4898 61.8154 23.7807 61.8154H27.8532C28.0532 61.8154 28.1441 61.9063 28.1441 62.1063C28.1441 62.3063 28.1441 62.5063 27.8532 62.5063H26.4533C26.2533 62.5063 26.1624 62.5063 26.1624 62.7972V65.288V65.1971H26.1806Z" fill="#035AA6"/>
<path d="M111.849 65.0881V62.7064C111.849 62.5064 111.849 62.4155 111.558 62.4155H110.267C109.976 62.4155 109.976 62.2155 109.976 62.0155C109.976 61.8155 109.976 61.7246 110.267 61.7246H114.34C114.54 61.7246 114.631 61.8155 114.631 62.0155C114.631 62.2155 114.631 62.4155 114.34 62.3064H113.049C112.758 62.3064 112.649 62.3064 112.649 62.7064V67.3789C112.649 67.7789 112.358 67.9789 111.958 67.7789C111.867 67.7789 111.867 67.5789 111.867 67.488V64.9972V65.0881H111.849Z" fill="#035AA6"/>
<path d="M35.7437 64.7968V62.106C35.7437 61.8333 35.871 61.7061 36.1437 61.7061H36.3437C36.477 61.7061 36.5437 61.7727 36.5437 61.906V66.7785C36.5437 67.0452 36.677 67.1785 36.9437 67.1785H38.8345C39.1254 67.1785 39.1254 67.2694 39.1254 67.4694C39.1254 67.6694 39.1254 67.7603 38.8345 67.7603H36.0528C35.8528 67.7603 35.7619 67.7603 35.7619 67.4694V64.6877V64.7786L35.7437 64.7968Z" fill="#035AA6"/>
<path d="M21.908 64.888V67.5788C21.908 67.8697 21.908 67.9788 21.6171 67.8697H21.4172C21.2838 67.8697 21.2172 67.803 21.2172 67.6697V62.1063C21.2172 62.0154 21.2172 61.8154 21.3081 61.8154H21.908V64.9062V64.888Z" fill="#035AA6"/>
</svg>
