<svg xmlns="http://www.w3.org/2000/svg" width="30" height="17" viewBox="0 0 30 17" fill="none">
  <path fill-rule="evenodd" clip-rule="evenodd" d="M20.0885 0C19.7722 0 19.456 0.0823828 19.1721 0.246544L11.6803 4.57712C10.7173 5.13386 10.3915 6.35218 10.947 7.31662V7.31755C11.5036 8.27931 12.719 8.60238 13.6798 8.04527C14.5585 7.54041 15.3973 6.96844 16.2488 6.41936C16.4396 6.30439 16.7186 6.33653 16.8732 6.48535L23.1225 12.7434C23.1329 12.7541 23.1418 12.7655 23.1516 12.7764L24.9983 11.7086V2.55622L21.0029 0.246572C20.721 0.0823969 20.4048 0 20.0885 0ZM10.9643 0.0073126C10.5985 -0.00834365 10.2289 0.0653107 9.88861 0.229111L4.99969 2.58275V11.7086C7.69364 13.2797 10.4089 14.8225 13.1122 16.392C14.0934 16.9617 15.9074 16.9627 16.8906 16.3948C17.3738 16.1157 17.8576 15.8379 18.3398 15.559C18.5386 15.4433 18.7685 15.463 18.9432 15.6378L19.5877 16.283C20.3715 17.0702 21.6294 17.0726 22.4158 16.2885V16.2876C23.2024 15.4999 23.2021 14.2383 22.4158 13.4509L16.452 7.47887C15.7042 7.97428 14.9556 8.4635 14.1806 8.91323V8.91229C12.752 9.74068 10.9091 9.24938 10.0818 7.81887V7.81794C9.25542 6.38479 9.75009 4.53751 11.1813 3.71007L14.5047 1.78904L12.0172 0.319847C11.692 0.127823 11.3302 0.0229829 10.9643 0.0073126ZM0.706781 1.37477C0.310313 1.37477 0 1.68624 0 2.08324V12.1824C0 12.5794 0.310313 12.89 0.706781 12.89H3.29316C3.68967 12.89 3.99994 12.5794 3.99994 12.1824V2.08324C3.99994 1.68624 3.68967 1.37477 3.29316 1.37477H0.706781ZM26.7068 1.37477C26.3103 1.37477 26.0001 1.68624 26.0001 2.08324V12.1824C26.0001 12.5794 26.3103 12.89 26.7068 12.89H29.2932C29.6897 12.89 30 12.5794 30 12.1824V2.08324C30 1.68624 29.6897 1.37477 29.2932 1.37477H26.7068Z" fill="#00B050"/>
</svg>