<svg xmlns="http://www.w3.org/2000/svg" width="22" height="27" viewBox="0 0 22 27" fill="none">
  <path fill-rule="evenodd" clip-rule="evenodd" d="M10.4196 0.0701999L1.864 2.1702C0.769768 2.43879 0 3.42344 0 4.55454V14.9888C0 19.1194 2.3435 22.8892 6.03913 24.7035L10.4632 26.8753C10.6326 26.9584 10.8163 27 11 27C11.1837 27 11.3674 26.9584 11.5368 26.8753L15.9609 24.7035C19.6565 22.8892 22 19.1194 22 14.9888V4.55454C22 3.42344 21.2302 2.43879 20.136 2.1702L11.5804 0.0701999C11.3898 0.023404 11.1949 0 11 0C10.8051 0 10.6102 0.023404 10.4196 0.0701999ZM16.7531 10.686C17.2304 10.2067 17.2304 9.42965 16.7531 8.95038C16.2758 8.47109 15.5019 8.47109 15.0247 8.95037L9.77778 14.2188L6.97534 11.4049C6.49803 10.9256 5.72417 10.9256 5.24687 11.4049C4.76956 11.8842 4.76956 12.6613 5.24688 13.1405L8.91354 16.8223C9.39082 17.3016 10.1647 17.3016 10.642 16.8223L16.7531 10.686Z" fill="#00B050"/>
</svg>