<svg width="176" height="32" viewBox="0 0 176 32" fill="none" xmlns="http://www.w3.org/2000/svg">
<path d="M17.9904 18.1064C17.4306 17.4344 16.7916 16.8344 16.0875 16.3201C15.2929 15.7395 14.4664 15.2049 13.6121 14.7189C12.6049 14.1328 11.5505 13.5841 10.4489 13.0728C9.40244 12.5898 8.38437 12.0462 7.3997 11.4447C6.53041 10.926 5.74951 10.2686 5.08709 9.49805C4.47369 8.76876 4.14721 7.83625 4.17002 6.87866C4.1592 6.15289 4.32465 5.43554 4.65181 4.78967C4.96552 4.1786 5.39272 3.63453 5.91001 3.18731C6.44878 2.72842 7.07168 2.38167 7.74304 2.16692C8.45384 1.93391 9.19667 1.81659 9.94379 1.81932C11.0032 1.79277 12.059 1.95716 13.0617 2.30484C13.8427 2.5863 14.5656 3.01171 15.1936 3.55958C15.7369 4.0399 16.1817 4.62356 16.5029 5.27743C16.7943 5.87001 16.9949 6.50411 17.0976 7.15787L17.4199 9.52384H18.3824L17.9205 0.792189C16.8816 0.576157 15.8272 0.389266 14.7573 0.231538C13.4504 0.06507 12.1336 -0.00985772 10.8166 0.00727442C9.45938 -0.00125816 8.10567 0.14697 6.78167 0.449075C5.6145 0.707094 4.50379 1.17909 3.50437 1.84174C2.5862 2.45978 1.83139 3.29593 1.30583 4.27723C0.743607 5.38236 0.467703 6.61389 0.503948 7.85644C0.453077 9.10474 0.704804 10.3467 1.23716 11.4738C1.79875 12.4895 2.56382 13.3753 3.48332 14.0741C4.6215 14.9498 5.85127 15.6961 7.1505 16.2999C8.52536 16.9503 9.81753 17.6309 11.027 18.3418C12.1503 18.9889 13.1835 19.7846 14.0994 20.7078C14.5116 21.1283 14.8356 21.6286 15.0522 22.1789C15.2687 22.7292 15.3734 23.318 15.3599 23.9103C15.3645 24.6948 15.1997 25.471 14.8769 26.1843C14.5609 26.888 14.1067 27.5194 13.5423 28.04C12.9354 28.5916 12.2271 29.0169 11.4578 29.2914C10.5759 29.6117 9.64459 29.7697 8.70774 29.7579C7.6255 29.7792 6.54756 29.614 5.52015 29.269C4.70249 28.9921 3.94139 28.5669 3.27399 28.0142C2.7084 27.5399 2.24123 26.9568 1.89949 26.2987C1.59487 25.7096 1.38619 25.0746 1.28146 24.4182L0.962482 22.0971H0L0.458535 30.9622C0.733209 30.9913 1.15077 31.0619 1.71896 31.1696C2.28714 31.2772 2.924 31.3805 3.64281 31.4724C4.36163 31.5644 5.1325 31.6507 5.95874 31.7292C6.785 31.8077 7.57581 31.8413 8.34113 31.8413C9.82379 31.8494 11.3017 31.6701 12.7404 31.3075C14.0242 30.9922 15.2427 30.4498 16.3401 29.7052C17.3994 28.9924 18.2609 28.0169 18.8425 26.8716C19.4242 25.7263 19.7065 24.4494 19.6627 23.1623C19.684 22.1852 19.5363 21.2118 19.2264 20.2861C18.9413 19.4923 18.5232 18.7541 17.9904 18.1041" fill="#002347"/>
<path d="M36.9198 21.7489C36.1076 23.8697 35.4656 25.564 34.9938 26.8319C34.5219 28.0996 34.1631 29.0654 33.9172 29.7293C33.672 30.3954 33.4579 30.944 33.2748 31.3754H36.0725C36.0725 31.335 38.023 25.8877 40.144 19.9717C39.2324 20.1118 38.321 20.252 37.4316 20.4C37.2555 20.8642 37.0804 21.3229 36.9198 21.7456" fill="#002347"/>
<path d="M75.4457 2.00506C75.8111 2.29702 76.0813 2.69361 76.221 3.14318C76.4269 3.81029 76.5198 4.50789 76.4957 5.2064V12.5532C77.3673 12.5129 78.2301 12.4669 79.1096 12.4344V4.7433H79.2004L83.4877 12.3167C84.8228 12.2875 86.1677 12.2658 87.5226 12.2516L80.8496 0.475586H72.5084V1.4018C73.0682 1.39665 73.6276 1.43413 74.182 1.51392C74.6345 1.57117 75.0668 1.7377 75.4424 1.99945" fill="#002347"/>
<path d="M97.6757 0.475586H95.0641V12.2707C95.9357 12.2842 96.8118 12.2864 97.6757 12.3055V0.475586Z" fill="#002347"/>
<path d="M117.246 14.5344C117.246 13.1724 117.315 11.7416 117.455 10.242C117.571 8.81735 117.92 7.42201 118.486 6.11223C119.029 4.86796 119.901 3.79997 121.007 3.02639C122.406 2.1477 124.037 1.72643 125.681 1.81986C127.018 1.78071 128.35 2.00935 129.601 2.49264C130.558 2.87887 131.431 3.45403 132.168 4.18469C132.792 4.81761 133.289 5.56605 133.633 6.3892C133.832 6.88014 133.996 7.38399 134.128 7.89736H135.413L135.032 1.26369C133.902 0.953456 132.611 0.666394 131.156 0.402522C129.528 0.12576 127.88 -0.00631137 126.23 0.00781553C123.991 -0.0562057 121.759 0.273496 119.632 0.982235C118.017 1.54341 116.583 2.53832 115.483 3.86064C114.407 5.24395 113.668 6.8653 113.326 8.59257C112.941 10.4715 112.737 12.3842 112.718 14.3034C105.775 13.8381 98.5153 13.588 91.0336 13.588C74.2563 13.4872 57.502 14.8637 40.9602 17.7021C43.2462 11.3409 45.4691 5.158 45.4691 5.158C45.4691 5.158 47.156 9.84395 49.0244 15.0323C50.3381 14.8431 51.6713 14.6641 53.0239 14.4951C50.7479 8.37615 48.3101 1.82546 47.6223 0.00781553H41.2062V0.937381C42.0502 0.874323 42.8972 1.009 43.6816 1.33096C43.8923 1.43239 44.057 1.61126 44.1422 1.8312C44.2273 2.05114 44.2266 2.29565 44.1401 2.51507C44.1233 2.53349 44.1106 2.55532 44.1028 2.57909C44.095 2.60287 44.0922 2.62805 44.0947 2.65299C42.4422 7.01937 41.036 10.7635 39.8759 13.8852C39.29 15.464 38.754 16.8959 38.2578 18.2168C33.1642 19.1931 28.1257 20.4436 23.1638 21.9631C31.946 19.8186 40.8579 18.2607 49.8419 17.2995C51.8477 22.8703 53.8159 28.3288 53.9487 28.6876C54.2235 29.4298 54.559 30.3112 54.9556 31.3316H59.2651C58.9904 30.5273 58.3794 28.8726 57.4321 26.3676C57.2637 25.9101 55.7275 21.7702 53.9067 16.8689C61.0461 16.1659 68.6196 15.6938 76.5012 15.4875V31.3787H79.1151V15.4303C81.1331 15.393 83.1691 15.3731 85.2233 15.3709L94.2888 31.3787H97.6813V15.5862C108.992 15.9474 120.27 16.9751 131.462 18.6641C131.594 19.2264 131.654 19.8033 131.642 20.3809V29.3861C131.212 29.4804 130.733 29.5645 130.202 29.643C129.464 29.731 128.721 29.7685 127.979 29.7551C126.572 29.7876 125.171 29.543 123.854 29.0352C122.757 28.6007 121.759 27.9455 120.92 27.1088C120.126 26.3042 119.481 25.361 119.017 24.3246C118.546 23.2803 118.178 22.1909 117.92 21.0727C117.709 20.1492 117.555 19.2128 117.461 18.2695C115.94 18.12 114.4 17.9787 112.843 17.8456C112.986 21.3492 114.198 24.7216 116.313 27.499C118.714 30.3913 122.297 31.8373 127.063 31.8373C128.753 31.8572 130.441 31.7172 132.104 31.4191C133.332 31.1951 134.542 30.8849 135.727 30.4906V16.7994C129.945 15.9024 123.757 15.1747 117.255 14.6386C117.255 14.6039 117.255 14.568 117.255 14.5332M95.0641 25.392H94.9711L89.3047 15.3911C91.2422 15.412 93.162 15.4494 95.0641 15.5032V25.392Z" fill="#002347"/>
<path d="M175.115 9.61646C174.792 7.82315 174.14 6.10724 173.191 4.55822C172.294 3.14211 171.045 1.98945 169.569 1.21559C167.771 0.420923 165.828 0.0107422 163.865 0.0107422C161.903 0.0107422 159.961 0.420923 158.161 1.21559C156.685 1.98793 155.436 3.14092 154.54 4.55822C153.589 6.10646 152.935 7.82259 152.613 9.61646C152.219 11.6961 152.028 13.8098 152.04 15.9272C152.024 18.0354 152.213 20.1402 152.604 22.211C152.929 23.9963 153.582 25.7037 154.531 27.2446C155.429 28.6657 156.677 29.825 158.152 30.6085C159.947 31.4187 161.891 31.8375 163.856 31.8375C165.822 31.8375 167.765 31.4187 169.56 30.6085C171.035 29.8236 172.283 28.6644 173.183 27.2446C174.128 25.7029 174.78 23.9956 175.106 22.211C175.501 20.1387 175.693 18.032 175.678 15.9216C175.692 13.8042 175.499 11.6905 175.106 9.61084M170.945 21.1469C170.838 22.6867 170.515 24.2033 169.984 25.6501C169.532 26.8844 168.772 27.9789 167.777 28.8267C166.618 29.613 165.254 30.0328 163.859 30.0328C162.463 30.0328 161.099 29.613 159.94 28.8267C158.946 27.9794 158.187 26.884 157.739 25.649C157.207 24.2025 156.883 22.6858 156.779 21.1458C156.639 19.4601 156.57 17.7198 156.57 15.925C156.57 14.1301 156.647 12.3902 156.799 10.7053C156.92 9.16287 157.261 7.64623 157.81 6.20206C158.274 4.96948 159.039 3.87645 160.035 3.0254C161.161 2.16837 162.55 1.74145 163.955 1.81999C165.354 1.73924 166.736 2.16668 167.852 3.0254C168.83 3.87712 169.573 4.97242 170.005 6.20318C170.521 7.6533 170.837 9.16867 170.945 10.7064C171.081 12.392 171.149 14.1319 171.15 15.9261C171.15 17.7202 171.082 19.4604 170.945 21.1469Z" fill="#002347"/>
</svg>
