<svg xmlns="http://www.w3.org/2000/svg" width="33" height="30" viewBox="0 0 33 30" fill="none">
  <path d="M33 15.5482V29.1737C33 29.63 32.6366 30 32.1885 30H0.811477C0.363379 30 0 29.63 0 29.1737V19.5327C0 19.2193 0.173981 18.9331 0.449234 18.7933L8.29346 14.8088C8.54501 14.6811 8.84364 14.6949 9.08253 14.8455C9.3216 14.996 9.46718 15.2619 9.46718 15.5482V18.1971L14.2706 15.7572V7.6874C14.2706 7.23113 14.634 6.86112 15.0821 6.86112H16.5548C17.0029 6.86112 17.3663 7.23113 17.3663 7.6874V18.1693L22.7254 15.4472L23.0571 0.807278C23.0674 0.358441 23.4275 0 23.8685 0H27.406C27.8468 0 28.2071 0.358441 28.2173 0.807278L28.5721 16.4619L31.8263 14.809C32.0778 14.6812 32.3763 14.6951 32.6154 14.8456C32.8544 14.9962 33 15.2619 33 15.5482ZM5.693 23.3129H3.49795V26.4538H5.693V23.3129ZM11.6371 23.3129H9.44202V26.4538H11.6371V23.3129ZM17.5813 23.3129H15.3862V26.4538H17.5813V23.3129ZM23.5255 23.3129H21.3305V26.4538H23.5255V23.3129Z" fill="#00B050"/>
</svg>