<svg xmlns="http://www.w3.org/2000/svg" width="30" height="30" viewBox="0 0 30 30" fill="none">
  <path d="M15 0C6.76136 0 0 6.76136 0 15C0 23.2386 6.76136 30 15 30C23.2386 30 30 23.2386 30 15C30 6.76136 23.2386 0 15 0ZM22.1591 16.1364C19.7727 16.1364 17.3864 16.1364 15 16.1364C14.375 16.1364 13.8636 15.625 13.8636 15C13.8636 14.6023 13.8636 14.2614 13.8636 13.8636C13.8636 11.8182 13.8636 9.77273 13.8636 7.67045C13.2955 8.23864 12.7841 8.75 12.2159 9.31818C11.7614 9.77273 11.0795 9.71591 10.625 9.31818C10.1705 8.92045 10.2273 8.125 10.625 7.72727L14.2045 4.14773C14.6591 3.69318 15.3977 3.69318 15.7955 4.14773C16.9886 5.34091 18.1818 6.53409 19.375 7.72727C19.8295 8.18182 19.7727 8.86364 19.375 9.31818C18.9773 9.77273 18.1818 9.71591 17.7841 9.31818C17.2159 8.75 16.7045 8.23864 16.1364 7.67045V13.8636H23.1818C24.6591 13.8636 24.6591 16.1364 23.1818 16.1364C22.8409 16.1364 22.5 16.1364 22.1591 16.1364Z" fill="#00B050"/>
</svg>