<svg xmlns="http://www.w3.org/2000/svg" width="129" height="51" viewBox="0 0 129 51" fill="none">
  <path d="M29.2363 0C33.4493 0.394865 35.8467 1.89709 38.7413 5.10605L8.42704 35.1919L1.49787 28.2595C0.651581 27.4121 0.129446 26.5451 0 25.3997V24.7481C0.0924614 24.1455 0.539539 22.8739 1.07255 22.3474L20.4427 3.18176C22.5073 1.13891 25.28 0.249102 28.0408 0H29.2363Z" fill="#1068D4"/>
  <path d="M37.2859 46.8921C31.8872 51.9644 23.5831 51.1704 19.0536 45.3888L49.2711 15.3965C55.0309 19.839 55.8206 28.2149 50.7189 33.5592L37.287 46.8921H37.2859Z" fill="#093161"/>
  <path d="M39.9314 6.12402L48.0527 14.2856L17.7102 44.3987L9.58879 36.2371L39.9314 6.12402Z" fill="#00B050"/>
  <path d="M106.931 18.0094L97.0573 18.0137L97.0562 24.3381L107.774 24.3414L107.762 29.12H90.7797L90.7786 4.05968L107.769 4.05859L107.768 8.8383H97.0616L97.0584 13.2319L106.919 13.2329L106.931 18.0094Z" fill="white"/>
  <path d="M128.81 24.3427L128.806 29.1202L112.039 29.118V4.06426L118.351 4.05664L118.35 24.3372L128.81 24.3427Z" fill="white"/>
  <path d="M86.0577 21.7135C84.1606 26.2952 80.163 28.9755 75.293 29.0201L64.5914 29.1191V4.05664L75.4507 4.16433C80.3066 4.21219 84.4075 6.99256 86.1784 11.5754C87.3271 14.8007 87.3728 18.4882 86.0577 21.7124V21.7135ZM80.0672 19.9763C80.7003 17.7518 80.7438 15.5316 80.0966 13.368C79.3613 10.9108 77.2999 9.10177 74.7317 8.84832C73.4416 8.72105 72.1906 8.75259 70.9005 8.76021V24.4123C75.1526 24.5004 78.218 24.5504 80.0662 19.9763H80.0672Z" fill="white"/>
  <path d="M65.0461 33.9763C65.4333 33.9175 65.8935 33.874 66.3971 33.874C67.3098 33.874 67.9602 34.0861 68.391 34.4875C68.8294 34.8889 69.085 35.4589 69.085 36.2552C69.085 37.0514 68.837 37.7161 68.3769 38.1686C67.9167 38.6287 67.1575 38.8767 66.2002 38.8767C65.7477 38.8767 65.3681 38.855 65.0461 38.818V33.9763ZM65.6813 38.3285C65.8423 38.3579 66.0762 38.3655 66.3242 38.3655C67.6829 38.3655 68.4204 37.6062 68.4204 36.2769C68.428 35.1152 67.7699 34.3777 66.4265 34.3777C66.098 34.3777 65.8499 34.407 65.6813 34.4429V38.3285Z" fill="white"/>
  <path d="M70.275 37.1813C70.2892 38.0505 70.845 38.4083 71.4879 38.4083C71.948 38.4083 72.2254 38.3279 72.4669 38.2256L72.5768 38.6857C72.3505 38.788 71.9633 38.9044 71.4009 38.9044C70.3131 38.9044 69.6626 38.1886 69.6626 37.1226C69.6626 36.0566 70.2903 35.2168 71.3204 35.2168C72.4745 35.2168 72.7813 36.2317 72.7813 36.8822C72.7813 37.0138 72.7671 37.1161 72.7595 37.1813H70.2761H70.275ZM72.1602 36.7212C72.1678 36.3122 71.9926 35.6769 71.2693 35.6769C70.6188 35.6769 70.3349 36.2763 70.2837 36.7212H72.1602Z" fill="white"/>
  <path d="M76.0958 38.701C75.9282 38.7892 75.5551 38.9056 75.0809 38.9056C74.0148 38.9056 73.3208 38.1822 73.3208 37.102C73.3208 36.0218 74.066 35.2256 75.2201 35.2256C75.5997 35.2256 75.9359 35.3202 76.111 35.4083L75.9652 35.9054C75.8118 35.8173 75.5704 35.7379 75.2201 35.7379C74.4097 35.7379 73.9713 36.3373 73.9713 37.0748C73.9713 37.8928 74.4967 38.3965 75.1983 38.3965C75.5638 38.3965 75.8042 38.3018 75.987 38.2213L76.0968 38.7032L76.0958 38.701Z" fill="white"/>
  <path d="M77.1629 37.1813C77.177 38.0505 77.7329 38.4083 78.3757 38.4083C78.8359 38.4083 79.1133 38.3279 79.3547 38.2256L79.4646 38.6857C79.2384 38.788 78.8511 38.9044 78.2887 38.9044C77.2009 38.9044 76.5504 38.1886 76.5504 37.1226C76.5504 36.0566 77.1781 35.2168 78.2082 35.2168C79.3624 35.2168 79.6691 36.2317 79.6691 36.8822C79.6691 37.0138 79.655 37.1161 79.6474 37.1813H77.1639H77.1629ZM79.0469 36.7212C79.0545 36.3122 78.8794 35.6769 78.156 35.6769C77.5055 35.6769 77.2216 36.2763 77.1705 36.7212H79.0469Z" fill="white"/>
  <path d="M80.4632 36.2544C80.4632 35.8889 80.4556 35.5898 80.4338 35.2983H81.0038L81.0408 35.8824H81.0549C81.2301 35.5463 81.6391 35.2178 82.2232 35.2178C82.7127 35.2178 83.472 35.5104 83.472 36.7222V38.8325H82.8291V36.7951C82.8291 36.2251 82.617 35.7508 82.0111 35.7508C81.588 35.7508 81.2584 36.0499 81.1496 36.4078C81.1202 36.4883 81.1061 36.5982 81.1061 36.7069V38.8325H80.4632V36.2544Z" fill="white"/>
  <path d="M85.2614 34.2822V35.2971H86.1817V35.7866H85.2614V37.6924C85.2614 38.1308 85.3854 38.3788 85.7433 38.3788C85.9108 38.3788 86.0359 38.3571 86.1153 38.3353L86.1447 38.8172C86.0207 38.8683 85.8238 38.9053 85.5747 38.9053C85.2755 38.9053 85.0341 38.8107 84.8807 38.6355C84.6979 38.4452 84.6327 38.1319 84.6327 37.7153V35.7877H84.0844V35.2982H84.6327V34.4508L85.2603 34.2833L85.2614 34.2822Z" fill="white"/>
  <path d="M86.905 36.4003C86.905 35.9837 86.8974 35.6258 86.8757 35.2973H87.4381L87.4598 35.9913H87.4892C87.6502 35.517 88.0374 35.2168 88.4682 35.2168C88.5411 35.2168 88.5922 35.2244 88.6509 35.2386V35.8444C88.5857 35.8303 88.5193 35.8227 88.4323 35.8227C87.9798 35.8227 87.6578 36.1664 87.5708 36.6483C87.5566 36.7364 87.5414 36.8387 87.5414 36.9475V38.8315H86.9061V36.3992L86.905 36.4003Z" fill="white"/>
  <path d="M91.2138 38.8325L91.1626 38.3865H91.1409C90.944 38.6639 90.5643 38.9119 90.0596 38.9119C89.3439 38.9119 88.9784 38.4082 88.9784 37.897C88.9784 37.042 89.7376 36.5753 91.1039 36.5829V36.5101C91.1039 36.2174 91.0234 35.692 90.3 35.692C89.9715 35.692 89.6278 35.7943 89.3798 35.9553L89.234 35.5321C89.5266 35.3418 89.9498 35.2178 90.3947 35.2178C91.4759 35.2178 91.7381 35.9553 91.7381 36.6634V37.9851C91.7381 38.2918 91.7522 38.591 91.7968 38.8325H91.2127H91.2138ZM91.1191 37.0278C90.4175 37.0137 89.6223 37.1377 89.6223 37.8241C89.6223 38.2407 89.8997 38.4376 90.2282 38.4376C90.6884 38.4376 90.981 38.145 91.0832 37.8459C91.105 37.7806 91.1202 37.7066 91.1202 37.6414V37.0278H91.1191Z" fill="white"/>
  <path d="M92.7769 33.6475H93.4198V38.8329H92.7769V33.6475Z" fill="white"/>
  <path d="M95.2157 34.3047C95.2233 34.5234 95.0623 34.6996 94.8067 34.6996C94.5804 34.6996 94.4194 34.5244 94.4194 34.3047C94.4194 34.085 94.5869 33.9033 94.8208 33.9033C95.0547 33.9033 95.2157 34.0785 95.2157 34.3047ZM94.4999 38.8331V35.2979H95.1428V38.8331H94.4999Z" fill="white"/>
  <path d="M96.1218 38.1745C96.3122 38.2985 96.6472 38.4301 96.9692 38.4301C97.4369 38.4301 97.6556 38.1962 97.6556 37.9047C97.6556 37.5979 97.4728 37.4304 96.9986 37.2542C96.3633 37.028 96.0642 36.6777 96.0642 36.2535C96.0642 35.6835 96.5243 35.2168 97.2836 35.2168C97.6415 35.2168 97.9558 35.319 98.1527 35.4354L97.9917 35.9032C97.8525 35.8151 97.5979 35.6987 97.2683 35.6987C96.8887 35.6987 96.6766 35.9173 96.6766 36.1806C96.6766 36.4732 96.8887 36.6037 97.3488 36.7788C97.9623 37.0127 98.2767 37.3195 98.2767 37.8449C98.2767 38.466 97.7948 38.9033 96.9551 38.9033C96.5678 38.9033 96.2099 38.8087 95.9619 38.6618L96.1229 38.1723L96.1218 38.1745Z" fill="white"/>
  <path d="M99.4591 37.1813C99.4733 38.0505 100.029 38.4083 100.672 38.4083C101.132 38.4083 101.41 38.3279 101.651 38.2256L101.761 38.6857C101.535 38.788 101.147 38.9044 100.585 38.9044C99.4972 38.9044 98.8467 38.1886 98.8467 37.1226C98.8467 36.0566 99.4744 35.2168 100.504 35.2168C101.659 35.2168 101.965 36.2317 101.965 36.8822C101.965 37.0138 101.951 37.1161 101.944 37.1813H99.4602H99.4591ZM101.343 36.7212C101.351 36.3122 101.176 35.6769 100.452 35.6769C99.8018 35.6769 99.5179 36.2763 99.4667 36.7212H101.343Z" fill="white"/>
  <path d="M105.813 33.6475V37.9203C105.813 38.2346 105.82 38.5925 105.842 38.8329H105.266L105.236 38.2194H105.222C105.025 38.6143 104.595 38.9134 104.017 38.9134C103.162 38.9134 102.505 38.19 102.505 37.1164C102.497 35.9405 103.228 35.2171 104.09 35.2171C104.63 35.2171 104.996 35.4728 105.156 35.7578H105.17V33.6475H105.813ZM105.17 36.7368C105.17 36.6563 105.162 36.5464 105.141 36.467C105.046 36.058 104.696 35.7219 104.213 35.7219C103.548 35.7219 103.153 36.306 103.153 37.0881C103.153 37.8039 103.503 38.3956 104.197 38.3956C104.628 38.3956 105.023 38.1106 105.14 37.6287C105.161 37.5406 105.169 37.4536 105.169 37.3514V36.7378L105.17 36.7368Z" fill="white"/>
  <path d="M110.998 36.5242H109.085V38.2984H111.217V38.8314H108.449V33.9092H111.107V34.4422H109.084V35.9977H110.997V36.5231L110.998 36.5242Z" fill="white"/>
  <path d="M112.021 36.2544C112.021 35.8889 112.013 35.5898 111.991 35.2983H112.561L112.598 35.8824H112.613C112.788 35.5463 113.197 35.2178 113.781 35.2178C114.27 35.2178 115.03 35.5104 115.03 36.7222V38.8325H114.387V36.7951C114.387 36.2251 114.175 35.7508 113.569 35.7508C113.146 35.7508 112.816 36.0499 112.707 36.4078C112.678 36.4883 112.664 36.5982 112.664 36.7069V38.8325H112.021V36.2544Z" fill="white"/>
  <path d="M116.432 37.1813C116.446 38.0505 117.002 38.4083 117.644 38.4083C118.104 38.4083 118.381 38.3279 118.623 38.2256L118.732 38.6857C118.506 38.788 118.119 38.9044 117.557 38.9044C116.469 38.9044 115.818 38.1886 115.818 37.1226C115.818 36.0566 116.446 35.2168 117.476 35.2168C118.63 35.2168 118.937 36.2317 118.937 36.8822C118.937 37.0138 118.923 37.1161 118.915 37.1813H116.432ZM118.316 36.7212C118.323 36.3122 118.148 35.6769 117.425 35.6769C116.774 35.6769 116.491 36.2763 116.439 36.7212H118.316Z" fill="white"/>
  <path d="M119.732 36.4003C119.732 35.9837 119.724 35.6258 119.703 35.2973H120.265L120.287 35.9913H120.316C120.477 35.517 120.864 35.2168 121.295 35.2168C121.368 35.2168 121.419 35.2244 121.478 35.2386V35.8444C121.413 35.8303 121.346 35.8227 121.259 35.8227C120.807 35.8227 120.485 36.1664 120.398 36.6483C120.384 36.7364 120.368 36.8387 120.368 36.9475V38.8315H119.733V36.3992L119.732 36.4003Z" fill="white"/>
  <path d="M125.108 35.2972C125.094 35.5528 125.079 35.8378 125.079 36.2686V38.3212C125.079 39.1316 124.918 39.6287 124.575 39.9355C124.231 40.2564 123.735 40.3586 123.289 40.3586C122.843 40.3586 122.398 40.2564 122.113 40.066L122.274 39.5765C122.508 39.7223 122.874 39.8539 123.311 39.8539C123.968 39.8539 124.45 39.5102 124.45 38.6193V38.2255H124.436C124.239 38.554 123.859 38.8172 123.311 38.8172C122.434 38.8172 121.807 38.0721 121.807 37.0942C121.807 35.8965 122.588 35.2178 123.399 35.2178C124.013 35.2178 124.349 35.5387 124.502 35.8313H124.516L124.546 35.2983H125.108V35.2972ZM124.443 36.6917C124.443 36.5819 124.436 36.4872 124.407 36.3991C124.291 36.0271 123.977 35.7203 123.509 35.7203C122.895 35.7203 122.457 36.2392 122.457 37.0572C122.457 37.7512 122.807 38.3277 123.501 38.3277C123.896 38.3277 124.254 38.0797 124.392 37.6707C124.429 37.5609 124.443 37.4368 124.443 37.327V36.6917Z" fill="white"/>
  <path d="M126.378 35.2979L127.153 37.3864C127.233 37.6203 127.32 37.8976 127.379 38.1098H127.393C127.459 37.8976 127.533 37.6279 127.62 37.3723L128.321 35.2979H129L128.036 37.8172C127.576 39.0289 127.262 39.6501 126.824 40.0297C126.51 40.3071 126.197 40.417 126.036 40.4463L125.875 39.9057C126.036 39.8546 126.247 39.7523 126.437 39.5913C126.612 39.4521 126.831 39.2041 126.978 38.8756C127.007 38.8103 127.029 38.7592 127.029 38.7222C127.029 38.6852 127.015 38.6341 126.985 38.5547L125.678 35.2979H126.38H126.378Z" fill="white"/>
  <path d="M65.0461 42.6738H65.6813V47.063H67.7851V47.596H65.0461V42.6738Z" fill="white"/>
  <path d="M69.1873 43.0684C69.1949 43.287 69.0339 43.4632 68.7783 43.4632C68.552 43.4632 68.391 43.2881 68.391 43.0684C68.391 42.8487 68.5585 42.667 68.7924 42.667C69.0263 42.667 69.1862 42.8421 69.1862 43.0684H69.1873ZM68.4715 47.5957V44.0604H69.1144V47.5957H68.4715Z" fill="white"/>
  <path d="M70.1804 45.0182C70.1804 44.6527 70.1728 44.3536 70.151 44.061H70.7134L70.7428 44.631H70.7645C70.9614 44.2948 71.2899 43.9805 71.8752 43.9805C72.3571 43.9805 72.7226 44.2731 72.8759 44.6886H72.8901C72.9999 44.4917 73.1381 44.3383 73.2849 44.2285C73.4971 44.0675 73.7309 43.9805 74.066 43.9805C74.5337 43.9805 75.2277 44.2872 75.2277 45.5142V47.5952H74.6001V45.5937C74.6001 44.9149 74.352 44.5059 73.8332 44.5059C73.4677 44.5059 73.1827 44.7756 73.0739 45.09C73.0445 45.1781 73.0228 45.2945 73.0228 45.4109V47.5941H72.3951V45.4762C72.3951 44.9138 72.1471 44.5048 71.6576 44.5048C71.2562 44.5048 70.9636 44.8257 70.8614 45.1477C70.8244 45.2423 70.8102 45.3522 70.8102 45.462V47.5941H70.1826V45.016L70.1804 45.0182Z" fill="white"/>
  <path d="M76.9866 43.0684C76.9943 43.287 76.8333 43.4632 76.5776 43.4632C76.3514 43.4632 76.1904 43.2881 76.1904 43.0684C76.1904 42.8487 76.3579 42.667 76.5918 42.667C76.8257 42.667 76.9856 42.8421 76.9856 43.0684H76.9866ZM76.2709 47.5957V44.0604H76.9138V47.5957H76.2709Z" fill="white"/>
  <path d="M78.7543 43.0469V44.0618H79.6746V44.5513H78.7543V46.4571C78.7543 46.8954 78.8783 47.1435 79.2362 47.1435C79.4037 47.1435 79.5288 47.1217 79.6082 47.0999L79.6376 47.5818C79.5136 47.633 79.3167 47.6699 79.0676 47.6699C78.7684 47.6699 78.527 47.5753 78.3736 47.4002C78.1908 47.2098 78.1256 46.8965 78.1256 46.4799V44.5524H77.5773V44.0629H78.1256V43.2155L78.7532 43.048L78.7543 43.0469Z" fill="white"/>
  <path d="M80.7112 45.946C80.7253 46.8151 81.2812 47.173 81.9241 47.173C82.3842 47.173 82.6616 47.0925 82.9031 46.9902L83.013 47.4504C82.7867 47.5526 82.3994 47.669 81.8371 47.669C80.7493 47.669 80.0988 46.9533 80.0988 45.8872C80.0988 44.8212 80.7264 43.9814 81.7566 43.9814C82.9107 43.9814 83.2175 44.9963 83.2175 45.6468C83.2175 45.7785 83.2033 45.8807 83.1957 45.946H80.7123H80.7112ZM82.5963 45.4858C82.6039 45.0768 82.4288 44.4416 81.7054 44.4416C81.0549 44.4416 80.771 45.0409 80.7199 45.4858H82.5963Z" fill="white"/>
  <path d="M87.0649 42.4102V46.683C87.0649 46.9973 87.0726 47.3552 87.0943 47.5956H86.5178L86.4884 46.9821H86.4743C86.2774 47.377 85.8466 47.6761 85.269 47.6761C84.4151 47.6761 83.757 46.9527 83.757 45.8791C83.7494 44.7032 84.4804 43.9798 85.3419 43.9798C85.8825 43.9798 86.248 44.2355 86.4079 44.5205H86.4221V42.4102H87.0649ZM86.4232 45.4995C86.4232 45.419 86.4155 45.3091 86.3938 45.2297C86.2991 44.8207 85.9478 44.4846 85.4659 44.4846C84.8013 44.4846 84.4075 45.0687 84.4075 45.8497C84.4075 46.5655 84.7578 47.1572 85.4518 47.1572C85.8825 47.1572 86.2774 46.8722 86.3938 46.3903C86.4155 46.3022 86.4232 46.2152 86.4232 46.113V45.4995Z" fill="white"/>
</svg>